<svg id="Layer_1" enable-background="new 0 0 256 256" height="512" viewBox="0 0 256 256" width="512" xmlns="http://www.w3.org/2000/svg"><path d="m111.366 65.511c-35.75 0-64.731 28.981-64.731 64.731v37.994h-3.149c-5.552 0-10.053 4.5-10.053 10.053 0 5.552 4.501 10.053 10.053 10.053h4.913c5.569 23.962 24.372 42.838 48.349 48.376v8.899 2.383h56.672v-11.282-6.677-7.188c13.873-11.872 22.677-29.497 22.677-49.188v-43.422c0-35.75-28.981-64.732-64.731-64.732z" fill="#f9cfcf"/><path d="m153.42 250h-56.672c-1.104 0-2-.896-2-2v-9.711c-23.316-5.991-41.881-24.568-47.917-47.947h-3.344c-6.646 0-12.053-5.407-12.053-12.053s5.407-12.053 12.053-12.053h1.148v-35.994c0-36.795 29.936-66.731 66.731-66.731s66.731 29.936 66.731 66.731v43.422c0 19.204-8.253 37.41-22.677 50.101v24.235c0 1.104-.896 2-2 2zm-54.672-4h52.672v-23.147c0-.584.256-1.14.699-1.52 13.967-11.952 21.978-29.327 21.978-47.668v-43.422c0-34.59-28.141-62.731-62.731-62.731s-62.731 28.141-62.731 62.731v37.994c0 1.104-.896 2-2 2h-3.148c-4.44 0-8.053 3.612-8.053 8.053s3.612 8.053 8.053 8.053h4.913c.93 0 1.737.641 1.948 1.547 5.379 23.148 23.77 41.549 46.851 46.88.907.209 1.55 1.018 1.55 1.949v9.281z" fill="#3762cc"/><path d="m70.303 168.764c-3.297 0-5.97-2.673-5.97-5.97v-9.95c0-3.297 2.673-5.97 5.97-5.97 3.297 0 5.97 2.673 5.97 5.97v9.95c0 3.297-2.673 5.97-5.97 5.97z" fill="#3762cc"/><circle cx="121.435" cy="170.121" fill="#f9cfcf" r="22.917"/><path d="m187.704 85.765-.003.008c-11.549-17.644-32.183-29.402-55.726-29.402-5.009 0-9.069 3.842-9.069 8.582v1.801c0-2.12-.649-4.089-1.758-5.731l.001-.002s-.312-.635-1.234-1.497c-1.217-1.231-2.737-2.171-4.448-2.691-2.398-.961-5.751-1.756-10.368-1.951v-.002c-.009 0-.018.001-.027.001-4.795-.199-10.954.25-18.856 1.848-5.75.63-11.242 2.095-16.348 4.274-.019.006-.037.011-.056.017l.002.007c-2.9 1.241-5.669 2.718-8.296 4.393-1.142.699-1.713 1.136-1.717 1.139-14.746 10.171-24.392 26.998-24.392 46.053v20.613c0 .955.788 1.73 1.76 1.73h85.735v44.685 16.858l10.34 21.1c.293.598.91.979 1.586.979h7.042 2.518 17.293c2.716 0 5.385-.388 7.932-1.119.079-.033 2.804-1.182 3.909-2.951 2.609-4.176 8.752-14.015 14.342-23.003 8.296-13.339 13.006-28.575 13.378-44.206 1.02-42.825-13.54-61.533-13.54-61.533z" fill="#4671c6"/><path d="m161.685 220.579h-26.854c-1.428 0-2.755-.823-3.381-2.097l-10.34-21.103c-.134-.274-.204-.575-.204-.88v-59.542h-83.735c-2.073 0-3.76-1.673-3.76-3.73v-20.614c0-18.96 9.442-36.791 25.256-47.699.044-.036.672-.503 1.808-1.198 2.673-1.707 5.507-3.212 8.396-4.459.093-.05.191-.092.294-.127.003-.001.007-.003.012-.004 5.322-2.26 10.95-3.731 16.732-4.373 7.255-1.462 13.703-2.093 19.182-1.871.068-.003.131.002.196.009 4.224.186 7.872.878 10.846 2.057 1.958.61 3.756 1.706 5.206 3.172.542.506.925.975 1.183 1.335 1.945-3.045 5.455-5.083 9.453-5.083 23.461 0 44.869 11.271 57.306 30.163.001.001.001.001.002.002.612.787 14.986 19.766 13.962 62.81-.375 15.793-5.104 31.429-13.679 45.214-5.59 8.99-11.734 18.831-14.344 23.007-1.376 2.203-4.266 3.499-4.83 3.736-.073.03-.147.057-.223.078-2.768.794-5.622 1.197-8.484 1.197zm-26.712-4h26.712c2.447 0 4.89-.339 7.262-1.007.872-.385 2.342-1.256 2.883-2.123 2.609-4.176 8.752-14.013 14.34-23 8.197-13.18 12.719-28.117 13.077-43.197.95-39.99-11.9-58.586-13.041-60.151-.063-.072-.123-.15-.178-.232-11.681-17.844-31.888-28.497-54.053-28.497-3.897 0-7.068 2.953-7.068 6.583v1.801c0 1.104-.896 2-2 2s-2-.896-2-2c0-1.646-.49-3.24-1.416-4.612-.054-.08-.102-.163-.143-.248-.046-.07-.286-.43-.798-.91-1.06-1.071-2.307-1.826-3.662-2.237-.055-.017-.109-.036-.163-.057-2.592-1.038-5.858-1.647-9.708-1.809-.012 0-.024-.001-.037-.001-5.189-.217-11.366.395-18.366 1.811-.059.012-.119.021-.179.028-5.456.598-10.766 1.986-15.781 4.125-.002.001-.003.001-.005.002-.016.007-.032.015-.048.021-2.743 1.173-5.436 2.6-8.006 4.24-1.044.64-1.562 1.03-1.583 1.046-14.806 10.214-23.601 26.815-23.601 44.459v20.344h85.496c1.104 0 2 .896 2 2v61.079z" fill="#3762cc"/><circle cx="121.435" cy="170.121" fill="#f9cfcf" r="22.917"/><g fill="#ffea92"><path d="m193.43 77.751c4.364-4.767 7.029-11.116 7.029-18.089 0-14.8-11.998-26.798-26.798-26.798s-26.798 11.998-26.798 26.798c0 6.972 2.664 13.322 7.029 18.089h-.07c4.432 5.247 7.11 12.022 7.11 19.429 0 .449-.014.895-.034 1.34h2.714 8.709 2.679 8.039 3.384c-.019-.445-.034-.89-.034-1.34 0-7.406 2.678-14.182 7.11-19.429z"/><path d="m193.498 34.503.11.11c1.539 1.539 4.035 1.539 5.574 0l8.638-8.638c1.539-1.539 1.539-4.035 0-5.574l-.11-.11c-1.539-1.539-4.035-1.539-5.574 0l-8.638 8.638c-1.54 1.539-1.54 4.034 0 5.574z"/><path d="m173.733 26.674h-.146c-2.18 0-3.947-1.767-3.947-3.947v-12.258c0-2.18 1.767-3.947 3.947-3.947h.146c2.18 0 3.947 1.767 3.947 3.947v12.258c0 2.18-1.767 3.947-3.947 3.947z"/><path d="m154.158 34.503-.11.11c-1.539 1.539-4.035 1.539-5.574 0l-8.638-8.638c-1.539-1.539-1.539-4.035 0-5.574l.11-.11c1.539-1.539 4.035-1.539 5.574 0l8.638 8.638c1.539 1.539 1.539 4.034 0 5.574z"/><path d="m202.468 46.154v-.156c0-2.177 1.765-3.942 3.942-3.942h12.215c2.177 0 3.942 1.765 3.942 3.942v.156c0 2.177-1.765 3.942-3.942 3.942h-12.215c-2.177 0-3.942-1.765-3.942-3.942z"/><path d="m124.754 46.154v-.156c0-2.177 1.765-3.942 3.942-3.942h12.215c2.177 0 3.942 1.765 3.942 3.942v.156c0 2.177-1.765 3.942-3.942 3.942h-12.215c-2.177 0-3.942-1.765-3.942-3.942z"/></g><path d="m186.932 106.559h-26.542c-.811 0-1.468-.657-1.468-1.468v-5.104c0-.811.657-1.468 1.468-1.468h26.542c.811 0 1.468.657 1.468 1.468v5.104c-.001.811-.658 1.468-1.468 1.468z" fill="#6bdddd"/><path d="m184.739 114.598h-21.487c-1.282 0-2.321-1.039-2.321-2.321v-5.719h26.128v5.719c0 1.282-1.039 2.321-2.32 2.321z" fill="#6bdddd"/><path d="m176.34 125.317h-5.36c-4.44 0-8.039-3.599-8.039-8.039v-2.68h21.438v2.68c.001 4.44-3.599 8.039-8.039 8.039z" fill="#6bdddd"/><path d="m186.932 108.559h-26.542c-1.912 0-3.468-1.556-3.468-3.468v-5.104c0-1.912 1.556-3.468 3.468-3.468h26.542c1.912 0 3.468 1.556 3.468 3.468v5.104c-.001 1.912-1.556 3.468-3.468 3.468zm-26.01-4h25.478v-4.04h-25.478z" fill="#3762cc"/><path d="m184.738 116.598h-21.486c-2.382 0-4.32-1.938-4.32-4.321v-5.719c0-1.104.896-2 2-2h26.128c1.104 0 2 .896 2 2v5.719c0 2.383-1.939 4.321-4.322 4.321zm-21.806-8.039v3.719c0 .177.144.321.32.321h21.486c.177 0 .321-.144.321-.321v-3.719z" fill="#3762cc"/><path d="m176.34 127.317h-5.359c-5.535 0-10.039-4.504-10.039-10.04v-2.68c0-1.104.896-2 2-2h21.438c1.104 0 2 .896 2 2v2.68c0 5.536-4.504 10.04-10.04 10.04zm-11.399-10.719v.68c0 3.33 2.709 6.04 6.039 6.04h5.359c3.33 0 6.04-2.709 6.04-6.04v-.68z" fill="#3762cc"/><path d="m173.66 61.871c-4.81 0-8.71 3.899-8.71 8.71 0 3.662 2.263 6.791 5.465 8.078v19.86h6.489v-19.86c3.202-1.287 5.465-4.416 5.465-8.078.001-4.81-3.898-8.71-8.709-8.71zm0 13.621c-2.708 0-4.911-2.203-4.911-4.911s2.203-4.911 4.911-4.911 4.911 2.203 4.911 4.911-2.203 4.911-4.911 4.911z" fill="#f9a7a7"/><path d="m186.424 100.519h-25.526c-.546 0-1.067-.223-1.445-.617-.377-.394-.577-.925-.553-1.471.019-.415.032-.832.032-1.252 0-6.628-2.357-13.07-6.639-18.138-.085-.102-.16-.21-.223-.324-4.652-5.266-7.208-12.012-7.208-19.055 0-15.879 12.919-28.798 28.798-28.798 15.88 0 28.799 12.919 28.799 28.798 0 7.042-2.557 13.788-7.209 19.055-.063.114-.138.222-.223.324-4.28 5.068-6.638 11.509-6.638 18.138 0 .42.014.837.032 1.252.024.545-.176 1.077-.553 1.471s-.898.617-1.444.617zm-23.499-4h21.472c.148-7.172 2.708-14.117 7.255-19.674.078-.159.179-.309.303-.445 4.195-4.582 6.505-10.526 6.505-16.738 0-13.674-11.125-24.798-24.799-24.798s-24.798 11.125-24.798 24.798c0 6.212 2.31 12.157 6.504 16.738.128.14.233.295.315.46 4.54 5.556 7.094 12.494 7.243 19.659z" fill="#3762cc"/></svg>